# xmcd CD database file
#
# Track frame offsets:
#	150
#	12122
#	22635
#	39907
#	53742
#	84500
#	92857
#	103685
#	114252
#	126977
#	136905
#	149865
#	161717
#	175437
#	187605
#	205237
#
# Disc length: 2886 seconds
#
# Revision: 2
# Processed by: cddbd v1.5.1PL2 Copyright (c) Steve Scherf et al.
# Submitted via: CDex 1.51
#
DISCID=ce0b4410
DTITLE=Various Artist - Golden Hits 3
DYEAR=1900
DGENRE=Misc
TTITLE0=The Platters_The Great Pretender
TTITLE1=Fats Domino_Blueberry Hill
TTITLE2=Billie Holiday_But Not For Me
TTITLE3=Harry Belafonte_Day'O (Banana Boat Song)
TTITLE4=Thelonious Monk_Rhythm-A-King
TTITLE5=Buddy Holly_Rock Me Baby
TTITLE6=Frank Sinatra_Night And Day
TTITLE7=Jerry Lee Lewis_Good Golly Miss Molly
TTITLE8=Dean Martin_I Can't Give You Anything But Love
TTITLE9=Bill Haley_Whole Lotta Shakin'g Goin' On
TTITLE10=Dionne Warwick_Trains And Boats And Planes
TTITLE11=Nat King Cole_Love Is A Many Splendored Thing
TTITLE12=Tina Turner_Tina's Prayer
TTITLE13=Chuck Berry_Johnny B. Goode
TTITLE14=Ella Fitzgerald and Louis Armstrong_A Fine Romance
TTITLE15=Bing Crosby_Swinging On A Star
EXTD=
EXTT0=
EXTT1=
EXTT2=
EXTT3=
EXTT4=
EXTT5=
EXTT6=
EXTT7=
EXTT8=
EXTT9=
EXTT10=
EXTT11=
EXTT12=
EXTT13=
EXTT14=
EXTT15=
PLAYORDER=
